<svg width="25" height="52" viewBox="0 0 25 52" fill="none" xmlns="http://www.w3.org/2000/svg">
<path fill-rule="evenodd" clip-rule="evenodd" d="M11.0331 7.82315C10.221 12.1284 9.55169 15.6556 9.54582 15.6614C9.53784 15.6693 0.234902 13.8136 0.0106281 13.7594C-0.0128359 13.7537 1.4606 15.2182 3.28493 17.0137L6.60189 20.2783L3.28512 23.536C1.46088 25.3277 -0.0173587 26.7935 0.000154015 26.7934C0.0176454 26.7932 2.17252 26.3633 4.78876 25.838C7.405 25.3128 9.5471 24.8845 9.54896 24.8864C9.55084 24.8883 10.2199 30.9849 11.0275 38.4442C11.8352 45.9035 12.5015 52 12.5015 52C12.5015 52 13.1802 45.881 13.9866 38.4301C14.793 30.9791 15.4478 24.8893 15.4501 24.8872C15.4524 24.8851 17.5945 25.3132 20.2105 25.8385C22.8264 26.3639 24.9803 26.7937 24.9969 26.7937C25.0135 26.7937 23.5355 25.3276 21.7125 23.5357L18.3979 20.2777L21.7149 17.0127C23.5392 15.217 25.0174 13.7518 24.9998 13.7567C24.8719 13.7924 15.4623 15.6696 15.4537 15.6611C15.4476 15.6552 14.7849 12.13 13.9809 7.82744C13.1769 3.5249 12.517 0.00254682 12.5144 1.35682e-06C12.5118 -0.00252307 11.8453 3.51789 11.0331 7.82315Z" fill="white"/>
</svg>
