<svg width="97" height="24" viewBox="0 0 97 24" fill="none" xmlns="http://www.w3.org/2000/svg">
<path d="M0.208 10.16L19 5.768V8.12L3.088 11.84L19 15.536V17.912L0.208 13.496V10.16ZM28.6911 2.72H31.1151L24.8751 23.6H22.4511L28.6911 2.72ZM50.9373 0.8H53.2653V20H50.9373V17.432C50.2173 18.408 49.2173 19.16 47.9373 19.688C46.6573 20.216 45.1053 20.48 43.2813 20.48C41.5373 20.48 39.9853 20.2 38.6253 19.64C37.2813 19.064 36.2253 18.216 35.4573 17.096C34.7053 15.976 34.3293 14.624 34.3293 13.04C34.3293 11.44 34.7053 10.088 35.4573 8.984C36.2253 7.864 37.2813 7.024 38.6253 6.464C39.9693 5.888 41.5213 5.6 43.2813 5.6C45.1053 5.6 46.6573 5.864 47.9373 6.392C49.2173 6.92 50.2173 7.672 50.9373 8.648V0.8ZM43.7853 18.368C46.0253 18.368 47.7773 17.896 49.0413 16.952C50.3053 16.008 50.9373 14.704 50.9373 13.04C50.9373 11.376 50.3053 10.072 49.0413 9.128C47.7773 8.184 46.0253 7.712 43.7853 7.712C41.5773 7.712 39.8653 8.184 38.6493 9.128C37.4493 10.072 36.8493 11.376 36.8493 13.04C36.8493 14.704 37.4493 16.008 38.6493 16.952C39.8653 17.896 41.5773 18.368 43.7853 18.368ZM58.3189 15.344C58.4149 16.08 58.7349 16.672 59.2789 17.12C59.8229 17.552 60.6389 17.872 61.7269 18.08C62.8309 18.272 64.2869 18.368 66.0949 18.368C67.8389 18.368 69.1669 18.288 70.0789 18.128C70.9909 17.968 71.6069 17.728 71.9269 17.408C72.2629 17.088 72.4309 16.64 72.4309 16.064C72.4309 15.52 72.2629 15.128 71.9269 14.888C71.6069 14.632 70.9909 14.44 70.0789 14.312C69.1669 14.168 67.5989 14.016 65.3749 13.856C63.1509 13.696 61.4309 13.504 60.2149 13.28C58.9989 13.04 58.0709 12.656 57.4309 12.128C56.8069 11.6 56.4949 10.832 56.4949 9.824C56.4949 8.272 57.2709 7.184 58.8229 6.56C60.3909 5.92 62.5669 5.6 65.3509 5.6C67.2069 5.6 68.7669 5.72 70.0309 5.96C71.3109 6.184 72.3429 6.624 73.1269 7.28C73.9109 7.92 74.3589 8.832 74.4709 10.016H71.9509C71.8549 9.376 71.5589 8.896 71.0629 8.576C70.5669 8.24 69.8469 8.016 68.9029 7.904C67.9749 7.776 66.6949 7.712 65.0629 7.712C62.8389 7.712 61.2789 7.88 60.3829 8.216C59.4869 8.536 59.0389 9.024 59.0389 9.68C59.0389 10.128 59.2069 10.464 59.5429 10.688C59.8789 10.912 60.5029 11.104 61.4149 11.264C62.3429 11.408 63.8229 11.568 65.8549 11.744L67.0069 11.84C69.0229 12.016 70.5429 12.2 71.5669 12.392C72.5909 12.584 73.4149 12.952 74.0389 13.496C74.6629 14.04 74.9749 14.856 74.9749 15.944C74.9749 17.64 74.2549 18.824 72.8149 19.496C71.3749 20.152 69.1989 20.48 66.2869 20.48C64.2389 20.48 62.4709 20.344 60.9829 20.072C59.5109 19.816 58.3029 19.312 57.3589 18.56C56.4149 17.808 55.8949 16.736 55.7989 15.344H58.3189ZM78.1649 8.12V5.768L96.9569 10.16V13.496L78.1649 17.912V15.536L94.0769 11.84L78.1649 8.12Z" fill="white"/>
</svg>
